<svg width="12" height="14" viewBox="0 0 12 14" fill="none" xmlns="http://www.w3.org/2000/svg">
<g id="arrow sort">
<path id="Combo shape" fill-rule="evenodd" clip-rule="evenodd" d="M0.558058 9.89131C0.31398 10.1354 0.31398 10.5311 0.558058 10.7752L3.05806 13.2752C3.30214 13.5193 3.69786 13.5193 3.94194 13.2752C4.18602 13.0311 4.18602 12.6354 3.94194 12.3913L2.50888 10.9583L11 10.9583C11.3452 10.9583 11.625 10.6784 11.625 10.3333C11.625 9.98807 11.3452 9.70825 11 9.70825L2.50888 9.70825L3.94194 8.27519C4.18602 8.03112 4.18602 7.63539 3.94194 7.39131C3.69786 7.14723 3.30214 7.14723 3.05806 7.39131L0.558058 9.89131ZM8.94194 6.60853L11.4419 4.10853C11.686 3.86445 11.686 3.46872 11.4419 3.22464L8.94194 0.724643C8.69786 0.480566 8.30214 0.480566 8.05806 0.724643C7.81398 0.968721 7.81398 1.36445 8.05806 1.60853L9.49112 3.04159L1 3.04159C0.654822 3.04159 0.375 3.32141 0.375 3.66659C0.375 4.01176 0.654822 4.29158 1 4.29158L9.49112 4.29159L8.05806 5.72464C7.81398 5.96872 7.81398 6.36445 8.05806 6.60853C8.30214 6.8526 8.69786 6.8526 8.94194 6.60853Z" fill="#101316"/>
</g>
</svg>
