<svg width="20" height="20" viewBox="0 0 20 20" fill="none" xmlns="http://www.w3.org/2000/svg">
<g id="Huge-icon/interface/outline/eye">
<g id="Vector">
<path d="M17.6086 8.211C18.5749 9.22772 18.5749 10.7724 17.6086 11.7892C15.9788 13.504 13.1796 15.8334 10 15.8334C6.82042 15.8334 4.02126 13.504 2.39144 11.7892C1.4251 10.7724 1.4251 9.22772 2.39144 8.211C4.02126 6.49619 6.82042 4.16675 10 4.16675C13.1796 4.16675 15.9788 6.49619 17.6086 8.211Z" stroke="#101316" stroke-width="1.5"/>
<path d="M12.5 10.0001C12.5 11.3808 11.3807 12.5001 10 12.5001C8.61931 12.5001 7.50002 11.3808 7.50002 10.0001C7.50002 8.61937 8.61931 7.50008 10 7.50008C11.3807 7.50008 12.5 8.61937 12.5 10.0001Z" stroke="#101316" stroke-width="1.5"/>
</g>
</g>
</svg>
