<svg width="20" height="20" viewBox="0 0 20 20" fill="none" xmlns="http://www.w3.org/2000/svg">
<g id="Huge-icon/interface/solid/star">
<path id="Star 2" d="M8.36051 2.72601C9.03109 1.31334 10.9686 1.31333 11.6392 2.72601L12.7981 5.16749C13.0644 5.72846 13.5791 6.11728 14.1745 6.20724L16.766 6.59875C18.2654 6.82528 18.8641 8.74112 17.7791 9.84074L15.9039 11.7412C15.4731 12.1778 15.2765 12.807 15.3782 13.4235L15.8208 16.107C16.077 17.6596 14.5095 18.8437 13.1684 18.1106L10.8505 16.8437C10.318 16.5526 9.68172 16.5526 9.14915 16.8437L6.83131 18.1106C5.49016 18.8437 3.92269 17.6596 4.17883 16.107L4.62149 13.4235C4.72321 12.807 4.5266 12.1778 4.09574 11.7412L2.22057 9.84074C1.13556 8.74113 1.73428 6.82528 3.23372 6.59875L5.82515 6.20724C6.42058 6.11728 6.93531 5.72846 7.20159 5.16749L8.36051 2.72601Z" stroke="#101316" stroke-opacity="0.8" stroke-linejoin="round"/>
</g>
</svg>
