<svg width="20" height="20" viewBox="0 0 20 20" fill="none" xmlns="http://www.w3.org/2000/svg">
<g id="Huge-icon/interface/outline/star" clip-path="url(#clip0_261_584)">
<path id="Star 2" d="M8.3607 2.72626C9.03127 1.31358 10.9688 1.31358 11.6393 2.72626L12.7983 5.16773C13.0645 5.72871 13.5793 6.11753 14.1747 6.20748L16.7661 6.59899C18.2656 6.82553 18.8643 8.74137 17.7793 9.84098L15.9041 11.7414C15.4733 12.1781 15.2767 12.8072 15.3784 13.4238L15.821 16.1072C16.0772 17.6599 14.5097 18.8439 13.1686 18.1109L10.8507 16.8439C10.3181 16.5528 9.6819 16.5528 9.14933 16.8439L6.83149 18.1109C5.49035 18.8439 3.92287 17.6599 4.17901 16.1072L4.62168 13.4238C4.72339 12.8072 4.52678 12.1781 4.09592 11.7414L2.22075 9.84099C1.13574 8.74137 1.73446 6.82553 3.2339 6.59899L5.82533 6.20748C6.42076 6.11753 6.93549 5.72871 7.20178 5.16773L8.3607 2.72626Z" stroke="#101316" stroke-width="1.5" stroke-linejoin="round"/>
</g>
<defs>
<clipPath id="clip0_261_584">
<rect width="20" height="20" fill="white"/>
</clipPath>
</defs>
</svg>
